<svg width="32" height="32" viewBox="0 0 32 32" fill="none" xmlns="http://www.w3.org/2000/svg">
<path d="M16.5631 26.0582L16.6682 25.9527C19.754 23.1454 22.4188 20.7211 24.3003 18.5122C26.1734 16.3133 27.5 14.0721 27.5 11.6154C27.5 8.15625 24.8663 5.5 21.4063 5.5C19.1681 5.5 16.9632 6.72274 15.8065 8.61209H15.2019C14.0384 6.72577 11.8359 5.5 9.59375 5.5C6.13369 5.5 3.5 8.15625 3.5 11.6154C3.5 14.0721 4.82659 16.3133 6.69967 18.5122C8.5812 20.7211 11.246 23.1454 14.3319 25.9527L14.4369 26.0582L15.5 27.1263L16.5631 26.0582Z" stroke="#002F52" stroke-width="3"/>
</svg>
