<svg width="35" height="32" viewBox="0 0 35 32" fill="none" xmlns="http://www.w3.org/2000/svg">
<path d="M6.93697 18.4694C8.83575 20.6881 11.5298 23.1279 14.6714 25.9725L14.7828 26.0839L15.6667 26.9678L16.5506 26.0839L16.662 25.9725C19.8036 23.1279 22.4976 20.6881 24.3964 18.4694C26.2876 16.2595 27.5833 14.0547 27.5833 11.6667C27.5833 8.30964 25.0237 5.75 21.6667 5.75C19.4355 5.75 17.2369 6.9953 16.1355 8.89667H15.2069C14.0978 6.99806 11.9014 5.75 9.66667 5.75C6.30964 5.75 3.75 8.30964 3.75 11.6667C3.75 14.0547 5.04571 16.2595 6.93697 18.4694Z" stroke="#002F52" stroke-width="2.5"/>
</svg>
